<?xml version="1.0" standalone="no"?>
<svg xmlns="http://www.w3.org/2000/svg" viewBox="0 0 1000 1000"><rect x="0" y="0" width="1000" height="1000" fill="#ffffff"/><g fill="#000000"><rect x="87" y="312" width="25" height="25" shape-rendering="crispEdges"/><rect x="87" y="437" width="25" height="25" shape-rendering="crispEdges"/><rect x="87" y="462" width="25" height="25" shape-rendering="crispEdges"/><rect x="87" y="537" width="25" height="25" shape-rendering="crispEdges"/><rect x="87" y="612" width="25" height="25" shape-rendering="crispEdges"/><rect x="87" y="637" width="25" height="25" shape-rendering="crispEdges"/><rect x="112" y="312" width="25" height="25" shape-rendering="crispEdges"/><rect x="112" y="337" width="25" height="25" shape-rendering="crispEdges"/><rect x="112" y="362" width="25" height="25" shape-rendering="crispEdges"/><rect x="112" y="387" width="25" height="25" shape-rendering="crispEdges"/><rect x="112" y="412" width="25" height="25" shape-rendering="crispEdges"/><rect x="112" y="462" width="25" height="25" shape-rendering="crispEdges"/><rect x="112" y="487" width="25" height="25" shape-rendering="crispEdges"/><rect x="112" y="512" width="25" height="25" shape-rendering="crispEdges"/><rect x="112" y="537" width="25" height="25" shape-rendering="crispEdges"/><rect x="112" y="587" width="25" height="25" shape-rendering="crispEdges"/><rect x="112" y="612" width="25" height="25" shape-rendering="crispEdges"/><rect x="112" y="637" width="25" height="25" shape-rendering="crispEdges"/><rect x="112" y="687" width="25" height="25" shape-rendering="crispEdges"/><rect x="137" y="312" width="25" height="25" shape-rendering="crispEdges"/><rect x="137" y="362" width="25" height="25" shape-rendering="crispEdges"/><rect x="137" y="387" width="25" height="25" shape-rendering="crispEdges"/><rect x="137" y="437" width="25" height="25" shape-rendering="crispEdges"/><rect x="137" y="487" width="25" height="25" shape-rendering="crispEdges"/><rect x="137" y="537" width="25" height="25" shape-rendering="crispEdges"/><rect x="137" y="612" width="25" height="25" shape-rendering="crispEdges"/><rect x="137" y="662" width="25" height="25" shape-rendering="crispEdges"/><rect x="137" y="687" width="25" height="25" shape-rendering="crispEdges"/><rect x="162" y="287" width="25" height="25" shape-rendering="crispEdges"/><rect x="162" y="312" width="25" height="25" shape-rendering="crispEdges"/><rect x="162" y="437" width="25" height="25" shape-rendering="crispEdges"/><rect x="162" y="462" width="25" height="25" shape-rendering="crispEdges"/><rect x="162" y="537" width="25" height="25" shape-rendering="crispEdges"/><rect x="162" y="562" width="25" height="25" shape-rendering="crispEdges"/><rect x="162" y="587" width="25" height="25" shape-rendering="crispEdges"/><rect x="162" y="612" width="25" height="25" shape-rendering="crispEdges"/><rect x="162" y="637" width="25" height="25" shape-rendering="crispEdges"/><rect x="187" y="362" width="25" height="25" shape-rendering="crispEdges"/><rect x="187" y="412" width="25" height="25" shape-rendering="crispEdges"/><rect x="187" y="462" width="25" height="25" shape-rendering="crispEdges"/><rect x="187" y="537" width="25" height="25" shape-rendering="crispEdges"/><rect x="187" y="562" width="25" height="25" shape-rendering="crispEdges"/><rect x="187" y="587" width="25" height="25" shape-rendering="crispEdges"/><rect x="187" y="637" width="25" height="25" shape-rendering="crispEdges"/><rect x="212" y="287" width="25" height="25" shape-rendering="crispEdges"/><rect x="212" y="412" width="25" height="25" shape-rendering="crispEdges"/><rect x="212" y="437" width="25" height="25" shape-rendering="crispEdges"/><rect x="212" y="462" width="25" height="25" shape-rendering="crispEdges"/><rect x="212" y="537" width="25" height="25" shape-rendering="crispEdges"/><rect x="212" y="587" width="25" height="25" shape-rendering="crispEdges"/><rect x="212" y="637" width="25" height="25" shape-rendering="crispEdges"/><rect x="212" y="687" width="25" height="25" shape-rendering="crispEdges"/><rect x="237" y="287" width="25" height="25" shape-rendering="crispEdges"/><rect x="237" y="337" width="25" height="25" shape-rendering="crispEdges"/><rect x="237" y="387" width="25" height="25" shape-rendering="crispEdges"/><rect x="237" y="437" width="25" height="25" shape-rendering="crispEdges"/><rect x="237" y="487" width="25" height="25" shape-rendering="crispEdges"/><rect x="237" y="537" width="25" height="25" shape-rendering="crispEdges"/><rect x="237" y="587" width="25" height="25" shape-rendering="crispEdges"/><rect x="237" y="637" width="25" height="25" shape-rendering="crispEdges"/><rect x="237" y="687" width="25" height="25" shape-rendering="crispEdges"/><rect x="262" y="287" width="25" height="25" shape-rendering="crispEdges"/><rect x="262" y="312" width="25" height="25" shape-rendering="crispEdges"/><rect x="262" y="387" width="25" height="25" shape-rendering="crispEdges"/><rect x="262" y="412" width="25" height="25" shape-rendering="crispEdges"/><rect x="262" y="437" width="25" height="25" shape-rendering="crispEdges"/><rect x="262" y="537" width="25" height="25" shape-rendering="crispEdges"/><rect x="262" y="637" width="25" height="25" shape-rendering="crispEdges"/><rect x="287" y="112" width="25" height="25" shape-rendering="crispEdges"/><rect x="287" y="137" width="25" height="25" shape-rendering="crispEdges"/><rect x="287" y="237" width="25" height="25" shape-rendering="crispEdges"/><rect x="287" y="337" width="25" height="25" shape-rendering="crispEdges"/><rect x="287" y="362" width="25" height="25" shape-rendering="crispEdges"/><rect x="287" y="387" width="25" height="25" shape-rendering="crispEdges"/><rect x="287" y="487" width="25" height="25" shape-rendering="crispEdges"/><rect x="287" y="537" width="25" height="25" shape-rendering="crispEdges"/><rect x="287" y="562" width="25" height="25" shape-rendering="crispEdges"/><rect x="287" y="587" width="25" height="25" shape-rendering="crispEdges"/><rect x="287" y="662" width="25" height="25" shape-rendering="crispEdges"/><rect x="287" y="687" width="25" height="25" shape-rendering="crispEdges"/><rect x="287" y="737" width="25" height="25" shape-rendering="crispEdges"/><rect x="287" y="762" width="25" height="25" shape-rendering="crispEdges"/><rect x="287" y="812" width="25" height="25" shape-rendering="crispEdges"/><rect x="312" y="87" width="25" height="25" shape-rendering="crispEdges"/><rect x="312" y="112" width="25" height="25" shape-rendering="crispEdges"/><rect x="312" y="162" width="25" height="25" shape-rendering="crispEdges"/><rect x="312" y="212" width="25" height="25" shape-rendering="crispEdges"/><rect x="312" y="312" width="25" height="25" shape-rendering="crispEdges"/><rect x="312" y="387" width="25" height="25" shape-rendering="crispEdges"/><rect x="312" y="462" width="25" height="25" shape-rendering="crispEdges"/><rect x="312" y="487" width="25" height="25" shape-rendering="crispEdges"/><rect x="312" y="562" width="25" height="25" shape-rendering="crispEdges"/><rect x="312" y="587" width="25" height="25" shape-rendering="crispEdges"/><rect x="312" y="662" width="25" height="25" shape-rendering="crispEdges"/><rect x="312" y="687" width="25" height="25" shape-rendering="crispEdges"/><rect x="312" y="737" width="25" height="25" shape-rendering="crispEdges"/><rect x="312" y="812" width="25" height="25" shape-rendering="crispEdges"/><rect x="312" y="887" width="25" height="25" shape-rendering="crispEdges"/><rect x="337" y="87" width="25" height="25" shape-rendering="crispEdges"/><rect x="337" y="212" width="25" height="25" shape-rendering="crispEdges"/><rect x="337" y="237" width="25" height="25" shape-rendering="crispEdges"/><rect x="337" y="262" width="25" height="25" shape-rendering="crispEdges"/><rect x="337" y="312" width="25" height="25" shape-rendering="crispEdges"/><rect x="337" y="387" width="25" height="25" shape-rendering="crispEdges"/><rect x="337" y="437" width="25" height="25" shape-rendering="crispEdges"/><rect x="337" y="462" width="25" height="25" shape-rendering="crispEdges"/><rect x="337" y="487" width="25" height="25" shape-rendering="crispEdges"/><rect x="337" y="512" width="25" height="25" shape-rendering="crispEdges"/><rect x="337" y="537" width="25" height="25" shape-rendering="crispEdges"/><rect x="337" y="562" width="25" height="25" shape-rendering="crispEdges"/><rect x="337" y="612" width="25" height="25" shape-rendering="crispEdges"/><rect x="337" y="662" width="25" height="25" shape-rendering="crispEdges"/><rect x="337" y="687" width="25" height="25" shape-rendering="crispEdges"/><rect x="337" y="737" width="25" height="25" shape-rendering="crispEdges"/><rect x="337" y="812" width="25" height="25" shape-rendering="crispEdges"/><rect x="337" y="837" width="25" height="25" shape-rendering="crispEdges"/><rect x="337" y="862" width="25" height="25" shape-rendering="crispEdges"/><rect x="337" y="887" width="25" height="25" shape-rendering="crispEdges"/><rect x="362" y="137" width="25" height="25" shape-rendering="crispEdges"/><rect x="362" y="212" width="25" height="25" shape-rendering="crispEdges"/><rect x="362" y="287" width="25" height="25" shape-rendering="crispEdges"/><rect x="362" y="312" width="25" height="25" shape-rendering="crispEdges"/><rect x="362" y="412" width="25" height="25" shape-rendering="crispEdges"/><rect x="362" y="462" width="25" height="25" shape-rendering="crispEdges"/><rect x="362" y="487" width="25" height="25" shape-rendering="crispEdges"/><rect x="362" y="537" width="25" height="25" shape-rendering="crispEdges"/><rect x="362" y="562" width="25" height="25" shape-rendering="crispEdges"/><rect x="362" y="637" width="25" height="25" shape-rendering="crispEdges"/><rect x="362" y="662" width="25" height="25" shape-rendering="crispEdges"/><rect x="362" y="687" width="25" height="25" shape-rendering="crispEdges"/><rect x="362" y="762" width="25" height="25" shape-rendering="crispEdges"/><rect x="362" y="787" width="25" height="25" shape-rendering="crispEdges"/><rect x="362" y="812" width="25" height="25" shape-rendering="crispEdges"/><rect x="362" y="862" width="25" height="25" shape-rendering="crispEdges"/><rect x="362" y="887" width="25" height="25" shape-rendering="crispEdges"/><rect x="387" y="112" width="25" height="25" shape-rendering="crispEdges"/><rect x="387" y="137" width="25" height="25" shape-rendering="crispEdges"/><rect x="387" y="212" width="25" height="25" shape-rendering="crispEdges"/><rect x="387" y="237" width="25" height="25" shape-rendering="crispEdges"/><rect x="387" y="287" width="25" height="25" shape-rendering="crispEdges"/><rect x="387" y="362" width="25" height="25" shape-rendering="crispEdges"/><rect x="387" y="412" width="25" height="25" shape-rendering="crispEdges"/><rect x="387" y="437" width="25" height="25" shape-rendering="crispEdges"/><rect x="387" y="462" width="25" height="25" shape-rendering="crispEdges"/><rect x="387" y="512" width="25" height="25" shape-rendering="crispEdges"/><rect x="387" y="537" width="25" height="25" shape-rendering="crispEdges"/><rect x="387" y="562" width="25" height="25" shape-rendering="crispEdges"/><rect x="387" y="587" width="25" height="25" shape-rendering="crispEdges"/><rect x="387" y="687" width="25" height="25" shape-rendering="crispEdges"/><rect x="387" y="712" width="25" height="25" shape-rendering="crispEdges"/><rect x="387" y="737" width="25" height="25" shape-rendering="crispEdges"/><rect x="387" y="862" width="25" height="25" shape-rendering="crispEdges"/><rect x="387" y="887" width="25" height="25" shape-rendering="crispEdges"/><rect x="412" y="87" width="25" height="25" shape-rendering="crispEdges"/><rect x="412" y="137" width="25" height="25" shape-rendering="crispEdges"/><rect x="412" y="262" width="25" height="25" shape-rendering="crispEdges"/><rect x="412" y="312" width="25" height="25" shape-rendering="crispEdges"/><rect x="412" y="362" width="25" height="25" shape-rendering="crispEdges"/><rect x="412" y="412" width="25" height="25" shape-rendering="crispEdges"/><rect x="412" y="437" width="25" height="25" shape-rendering="crispEdges"/><rect x="412" y="462" width="25" height="25" shape-rendering="crispEdges"/><rect x="412" y="537" width="25" height="25" shape-rendering="crispEdges"/><rect x="412" y="587" width="25" height="25" shape-rendering="crispEdges"/><rect x="412" y="637" width="25" height="25" shape-rendering="crispEdges"/><rect x="412" y="662" width="25" height="25" shape-rendering="crispEdges"/><rect x="412" y="687" width="25" height="25" shape-rendering="crispEdges"/><rect x="412" y="737" width="25" height="25" shape-rendering="crispEdges"/><rect x="412" y="762" width="25" height="25" shape-rendering="crispEdges"/><rect x="412" y="812" width="25" height="25" shape-rendering="crispEdges"/><rect x="412" y="837" width="25" height="25" shape-rendering="crispEdges"/><rect x="412" y="862" width="25" height="25" shape-rendering="crispEdges"/><rect x="412" y="887" width="25" height="25" shape-rendering="crispEdges"/><rect x="437" y="87" width="25" height="25" shape-rendering="crispEdges"/><rect x="437" y="112" width="25" height="25" shape-rendering="crispEdges"/><rect x="437" y="137" width="25" height="25" shape-rendering="crispEdges"/><rect x="437" y="162" width="25" height="25" shape-rendering="crispEdges"/><rect x="437" y="212" width="25" height="25" shape-rendering="crispEdges"/><rect x="437" y="237" width="25" height="25" shape-rendering="crispEdges"/><rect x="437" y="262" width="25" height="25" shape-rendering="crispEdges"/><rect x="437" y="362" width="25" height="25" shape-rendering="crispEdges"/><rect x="437" y="462" width="25" height="25" shape-rendering="crispEdges"/><rect x="437" y="487" width="25" height="25" shape-rendering="crispEdges"/><rect x="437" y="587" width="25" height="25" shape-rendering="crispEdges"/><rect x="437" y="612" width="25" height="25" shape-rendering="crispEdges"/><rect x="437" y="637" width="25" height="25" shape-rendering="crispEdges"/><rect x="437" y="662" width="25" height="25" shape-rendering="crispEdges"/><rect x="437" y="687" width="25" height="25" shape-rendering="crispEdges"/><rect x="437" y="787" width="25" height="25" shape-rendering="crispEdges"/><rect x="437" y="887" width="25" height="25" shape-rendering="crispEdges"/><rect x="462" y="187" width="25" height="25" shape-rendering="crispEdges"/><rect x="462" y="212" width="25" height="25" shape-rendering="crispEdges"/><rect x="462" y="287" width="25" height="25" shape-rendering="crispEdges"/><rect x="462" y="312" width="25" height="25" shape-rendering="crispEdges"/><rect x="462" y="337" width="25" height="25" shape-rendering="crispEdges"/><rect x="462" y="387" width="25" height="25" shape-rendering="crispEdges"/><rect x="462" y="412" width="25" height="25" shape-rendering="crispEdges"/><rect x="462" y="537" width="25" height="25" shape-rendering="crispEdges"/><rect x="462" y="562" width="25" height="25" shape-rendering="crispEdges"/><rect x="462" y="587" width="25" height="25" shape-rendering="crispEdges"/><rect x="462" y="637" width="25" height="25" shape-rendering="crispEdges"/><rect x="462" y="662" width="25" height="25" shape-rendering="crispEdges"/><rect x="462" y="687" width="25" height="25" shape-rendering="crispEdges"/><rect x="462" y="712" width="25" height="25" shape-rendering="crispEdges"/><rect x="462" y="737" width="25" height="25" shape-rendering="crispEdges"/><rect x="462" y="787" width="25" height="25" shape-rendering="crispEdges"/><rect x="462" y="812" width="25" height="25" shape-rendering="crispEdges"/><rect x="487" y="87" width="25" height="25" shape-rendering="crispEdges"/><rect x="487" y="112" width="25" height="25" shape-rendering="crispEdges"/><rect x="487" y="137" width="25" height="25" shape-rendering="crispEdges"/><rect x="487" y="187" width="25" height="25" shape-rendering="crispEdges"/><rect x="487" y="237" width="25" height="25" shape-rendering="crispEdges"/><rect x="487" y="312" width="25" height="25" shape-rendering="crispEdges"/><rect x="487" y="362" width="25" height="25" shape-rendering="crispEdges"/><rect x="487" y="387" width="25" height="25" shape-rendering="crispEdges"/><rect x="487" y="412" width="25" height="25" shape-rendering="crispEdges"/><rect x="487" y="462" width="25" height="25" shape-rendering="crispEdges"/><rect x="487" y="487" width="25" height="25" shape-rendering="crispEdges"/><rect x="487" y="537" width="25" height="25" shape-rendering="crispEdges"/><rect x="487" y="587" width="25" height="25" shape-rendering="crispEdges"/><rect x="487" y="687" width="25" height="25" shape-rendering="crispEdges"/><rect x="487" y="737" width="25" height="25" shape-rendering="crispEdges"/><rect x="487" y="762" width="25" height="25" shape-rendering="crispEdges"/><rect x="487" y="812" width="25" height="25" shape-rendering="crispEdges"/><rect x="487" y="862" width="25" height="25" shape-rendering="crispEdges"/><rect x="512" y="212" width="25" height="25" shape-rendering="crispEdges"/><rect x="512" y="287" width="25" height="25" shape-rendering="crispEdges"/><rect x="512" y="312" width="25" height="25" shape-rendering="crispEdges"/><rect x="512" y="387" width="25" height="25" shape-rendering="crispEdges"/><rect x="512" y="512" width="25" height="25" shape-rendering="crispEdges"/><rect x="512" y="562" width="25" height="25" shape-rendering="crispEdges"/><rect x="512" y="587" width="25" height="25" shape-rendering="crispEdges"/><rect x="512" y="637" width="25" height="25" shape-rendering="crispEdges"/><rect x="512" y="662" width="25" height="25" shape-rendering="crispEdges"/><rect x="512" y="737" width="25" height="25" shape-rendering="crispEdges"/><rect x="512" y="812" width="25" height="25" shape-rendering="crispEdges"/><rect x="512" y="862" width="25" height="25" shape-rendering="crispEdges"/><rect x="512" y="887" width="25" height="25" shape-rendering="crispEdges"/><rect x="537" y="87" width="25" height="25" shape-rendering="crispEdges"/><rect x="537" y="112" width="25" height="25" shape-rendering="crispEdges"/><rect x="537" y="162" width="25" height="25" shape-rendering="crispEdges"/><rect x="537" y="237" width="25" height="25" shape-rendering="crispEdges"/><rect x="537" y="262" width="25" height="25" shape-rendering="crispEdges"/><rect x="537" y="337" width="25" height="25" shape-rendering="crispEdges"/><rect x="537" y="362" width="25" height="25" shape-rendering="crispEdges"/><rect x="537" y="412" width="25" height="25" shape-rendering="crispEdges"/><rect x="537" y="487" width="25" height="25" shape-rendering="crispEdges"/><rect x="537" y="512" width="25" height="25" shape-rendering="crispEdges"/><rect x="537" y="537" width="25" height="25" shape-rendering="crispEdges"/><rect x="537" y="562" width="25" height="25" shape-rendering="crispEdges"/><rect x="537" y="587" width="25" height="25" shape-rendering="crispEdges"/><rect x="537" y="637" width="25" height="25" shape-rendering="crispEdges"/><rect x="537" y="662" width="25" height="25" shape-rendering="crispEdges"/><rect x="537" y="762" width="25" height="25" shape-rendering="crispEdges"/><rect x="537" y="812" width="25" height="25" shape-rendering="crispEdges"/><rect x="537" y="837" width="25" height="25" shape-rendering="crispEdges"/><rect x="537" y="887" width="25" height="25" shape-rendering="crispEdges"/><rect x="562" y="187" width="25" height="25" shape-rendering="crispEdges"/><rect x="562" y="212" width="25" height="25" shape-rendering="crispEdges"/><rect x="562" y="337" width="25" height="25" shape-rendering="crispEdges"/><rect x="562" y="362" width="25" height="25" shape-rendering="crispEdges"/><rect x="562" y="412" width="25" height="25" shape-rendering="crispEdges"/><rect x="562" y="437" width="25" height="25" shape-rendering="crispEdges"/><rect x="562" y="462" width="25" height="25" shape-rendering="crispEdges"/><rect x="562" y="487" width="25" height="25" shape-rendering="crispEdges"/><rect x="562" y="537" width="25" height="25" shape-rendering="crispEdges"/><rect x="562" y="562" width="25" height="25" shape-rendering="crispEdges"/><rect x="562" y="587" width="25" height="25" shape-rendering="crispEdges"/><rect x="562" y="662" width="25" height="25" shape-rendering="crispEdges"/><rect x="562" y="712" width="25" height="25" shape-rendering="crispEdges"/><rect x="562" y="787" width="25" height="25" shape-rendering="crispEdges"/><rect x="562" y="812" width="25" height="25" shape-rendering="crispEdges"/><rect x="562" y="862" width="25" height="25" shape-rendering="crispEdges"/><rect x="587" y="87" width="25" height="25" shape-rendering="crispEdges"/><rect x="587" y="162" width="25" height="25" shape-rendering="crispEdges"/><rect x="587" y="237" width="25" height="25" shape-rendering="crispEdges"/><rect x="587" y="262" width="25" height="25" shape-rendering="crispEdges"/><rect x="587" y="312" width="25" height="25" shape-rendering="crispEdges"/><rect x="587" y="412" width="25" height="25" shape-rendering="crispEdges"/><rect x="587" y="512" width="25" height="25" shape-rendering="crispEdges"/><rect x="587" y="637" width="25" height="25" shape-rendering="crispEdges"/><rect x="587" y="662" width="25" height="25" shape-rendering="crispEdges"/><rect x="587" y="687" width="25" height="25" shape-rendering="crispEdges"/><rect x="587" y="737" width="25" height="25" shape-rendering="crispEdges"/><rect x="587" y="762" width="25" height="25" shape-rendering="crispEdges"/><rect x="587" y="887" width="25" height="25" shape-rendering="crispEdges"/><rect x="612" y="112" width="25" height="25" shape-rendering="crispEdges"/><rect x="612" y="162" width="25" height="25" shape-rendering="crispEdges"/><rect x="612" y="362" width="25" height="25" shape-rendering="crispEdges"/><rect x="612" y="437" width="25" height="25" shape-rendering="crispEdges"/><rect x="612" y="462" width="25" height="25" shape-rendering="crispEdges"/><rect x="612" y="537" width="25" height="25" shape-rendering="crispEdges"/><rect x="612" y="612" width="25" height="25" shape-rendering="crispEdges"/><rect x="612" y="662" width="25" height="25" shape-rendering="crispEdges"/><rect x="612" y="687" width="25" height="25" shape-rendering="crispEdges"/><rect x="612" y="737" width="25" height="25" shape-rendering="crispEdges"/><rect x="612" y="762" width="25" height="25" shape-rendering="crispEdges"/><rect x="612" y="887" width="25" height="25" shape-rendering="crispEdges"/><rect x="637" y="87" width="25" height="25" shape-rendering="crispEdges"/><rect x="637" y="112" width="25" height="25" shape-rendering="crispEdges"/><rect x="637" y="137" width="25" height="25" shape-rendering="crispEdges"/><rect x="637" y="237" width="25" height="25" shape-rendering="crispEdges"/><rect x="637" y="287" width="25" height="25" shape-rendering="crispEdges"/><rect x="637" y="312" width="25" height="25" shape-rendering="crispEdges"/><rect x="637" y="337" width="25" height="25" shape-rendering="crispEdges"/><rect x="637" y="362" width="25" height="25" shape-rendering="crispEdges"/><rect x="637" y="387" width="25" height="25" shape-rendering="crispEdges"/><rect x="637" y="437" width="25" height="25" shape-rendering="crispEdges"/><rect x="637" y="487" width="25" height="25" shape-rendering="crispEdges"/><rect x="637" y="537" width="25" height="25" shape-rendering="crispEdges"/><rect x="637" y="562" width="25" height="25" shape-rendering="crispEdges"/><rect x="637" y="637" width="25" height="25" shape-rendering="crispEdges"/><rect x="637" y="662" width="25" height="25" shape-rendering="crispEdges"/><rect x="637" y="712" width="25" height="25" shape-rendering="crispEdges"/><rect x="637" y="737" width="25" height="25" shape-rendering="crispEdges"/><rect x="637" y="762" width="25" height="25" shape-rendering="crispEdges"/><rect x="637" y="787" width="25" height="25" shape-rendering="crispEdges"/><rect x="637" y="837" width="25" height="25" shape-rendering="crispEdges"/><rect x="637" y="887" width="25" height="25" shape-rendering="crispEdges"/><rect x="662" y="287" width="25" height="25" shape-rendering="crispEdges"/><rect x="662" y="312" width="25" height="25" shape-rendering="crispEdges"/><rect x="662" y="362" width="25" height="25" shape-rendering="crispEdges"/><rect x="662" y="387" width="25" height="25" shape-rendering="crispEdges"/><rect x="662" y="412" width="25" height="25" shape-rendering="crispEdges"/><rect x="662" y="437" width="25" height="25" shape-rendering="crispEdges"/><rect x="662" y="462" width="25" height="25" shape-rendering="crispEdges"/><rect x="662" y="712" width="25" height="25" shape-rendering="crispEdges"/><rect x="662" y="762" width="25" height="25" shape-rendering="crispEdges"/><rect x="662" y="812" width="25" height="25" shape-rendering="crispEdges"/><rect x="687" y="87" width="25" height="25" shape-rendering="crispEdges"/><rect x="687" y="112" width="25" height="25" shape-rendering="crispEdges"/><rect x="687" y="137" width="25" height="25" shape-rendering="crispEdges"/><rect x="687" y="162" width="25" height="25" shape-rendering="crispEdges"/><rect x="687" y="187" width="25" height="25" shape-rendering="crispEdges"/><rect x="687" y="212" width="25" height="25" shape-rendering="crispEdges"/><rect x="687" y="237" width="25" height="25" shape-rendering="crispEdges"/><rect x="687" y="312" width="25" height="25" shape-rendering="crispEdges"/><rect x="687" y="337" width="25" height="25" shape-rendering="crispEdges"/><rect x="687" y="362" width="25" height="25" shape-rendering="crispEdges"/><rect x="687" y="412" width="25" height="25" shape-rendering="crispEdges"/><rect x="687" y="437" width="25" height="25" shape-rendering="crispEdges"/><rect x="687" y="487" width="25" height="25" shape-rendering="crispEdges"/><rect x="687" y="562" width="25" height="25" shape-rendering="crispEdges"/><rect x="687" y="587" width="25" height="25" shape-rendering="crispEdges"/><rect x="687" y="662" width="25" height="25" shape-rendering="crispEdges"/><rect x="687" y="687" width="25" height="25" shape-rendering="crispEdges"/><rect x="687" y="712" width="25" height="25" shape-rendering="crispEdges"/><rect x="687" y="737" width="25" height="25" shape-rendering="crispEdges"/><rect x="687" y="762" width="25" height="25" shape-rendering="crispEdges"/><rect x="687" y="787" width="25" height="25" shape-rendering="crispEdges"/><rect x="687" y="862" width="25" height="25" shape-rendering="crispEdges"/><rect x="712" y="287" width="25" height="25" shape-rendering="crispEdges"/><rect x="712" y="362" width="25" height="25" shape-rendering="crispEdges"/><rect x="712" y="412" width="25" height="25" shape-rendering="crispEdges"/><rect x="712" y="437" width="25" height="25" shape-rendering="crispEdges"/><rect x="712" y="537" width="25" height="25" shape-rendering="crispEdges"/><rect x="712" y="562" width="25" height="25" shape-rendering="crispEdges"/><rect x="712" y="612" width="25" height="25" shape-rendering="crispEdges"/><rect x="712" y="662" width="25" height="25" shape-rendering="crispEdges"/><rect x="712" y="687" width="25" height="25" shape-rendering="crispEdges"/><rect x="712" y="787" width="25" height="25" shape-rendering="crispEdges"/><rect x="712" y="887" width="25" height="25" shape-rendering="crispEdges"/><rect x="737" y="487" width="25" height="25" shape-rendering="crispEdges"/><rect x="737" y="512" width="25" height="25" shape-rendering="crispEdges"/><rect x="737" y="562" width="25" height="25" shape-rendering="crispEdges"/><rect x="737" y="587" width="25" height="25" shape-rendering="crispEdges"/><rect x="737" y="687" width="25" height="25" shape-rendering="crispEdges"/><rect x="737" y="737" width="25" height="25" shape-rendering="crispEdges"/><rect x="737" y="787" width="25" height="25" shape-rendering="crispEdges"/><rect x="737" y="812" width="25" height="25" shape-rendering="crispEdges"/><rect x="737" y="837" width="25" height="25" shape-rendering="crispEdges"/><rect x="737" y="887" width="25" height="25" shape-rendering="crispEdges"/><rect x="762" y="312" width="25" height="25" shape-rendering="crispEdges"/><rect x="762" y="437" width="25" height="25" shape-rendering="crispEdges"/><rect x="762" y="462" width="25" height="25" shape-rendering="crispEdges"/><rect x="762" y="512" width="25" height="25" shape-rendering="crispEdges"/><rect x="762" y="537" width="25" height="25" shape-rendering="crispEdges"/><rect x="762" y="562" width="25" height="25" shape-rendering="crispEdges"/><rect x="762" y="587" width="25" height="25" shape-rendering="crispEdges"/><rect x="762" y="637" width="25" height="25" shape-rendering="crispEdges"/><rect x="762" y="662" width="25" height="25" shape-rendering="crispEdges"/><rect x="762" y="687" width="25" height="25" shape-rendering="crispEdges"/><rect x="762" y="787" width="25" height="25" shape-rendering="crispEdges"/><rect x="762" y="812" width="25" height="25" shape-rendering="crispEdges"/><rect x="762" y="862" width="25" height="25" shape-rendering="crispEdges"/><rect x="762" y="887" width="25" height="25" shape-rendering="crispEdges"/><rect x="787" y="312" width="25" height="25" shape-rendering="crispEdges"/><rect x="787" y="337" width="25" height="25" shape-rendering="crispEdges"/><rect x="787" y="387" width="25" height="25" shape-rendering="crispEdges"/><rect x="787" y="462" width="25" height="25" shape-rendering="crispEdges"/><rect x="787" y="512" width="25" height="25" shape-rendering="crispEdges"/><rect x="787" y="587" width="25" height="25" shape-rendering="crispEdges"/><rect x="787" y="612" width="25" height="25" shape-rendering="crispEdges"/><rect x="787" y="637" width="25" height="25" shape-rendering="crispEdges"/><rect x="787" y="662" width="25" height="25" shape-rendering="crispEdges"/><rect x="787" y="687" width="25" height="25" shape-rendering="crispEdges"/><rect x="787" y="712" width="25" height="25" shape-rendering="crispEdges"/><rect x="787" y="737" width="25" height="25" shape-rendering="crispEdges"/><rect x="787" y="762" width="25" height="25" shape-rendering="crispEdges"/><rect x="787" y="787" width="25" height="25" shape-rendering="crispEdges"/><rect x="812" y="362" width="25" height="25" shape-rendering="crispEdges"/><rect x="812" y="412" width="25" height="25" shape-rendering="crispEdges"/><rect x="812" y="487" width="25" height="25" shape-rendering="crispEdges"/><rect x="812" y="587" width="25" height="25" shape-rendering="crispEdges"/><rect x="812" y="612" width="25" height="25" shape-rendering="crispEdges"/><rect x="812" y="662" width="25" height="25" shape-rendering="crispEdges"/><rect x="812" y="687" width="25" height="25" shape-rendering="crispEdges"/><rect x="812" y="712" width="25" height="25" shape-rendering="crispEdges"/><rect x="812" y="762" width="25" height="25" shape-rendering="crispEdges"/><rect x="812" y="787" width="25" height="25" shape-rendering="crispEdges"/><rect x="812" y="812" width="25" height="25" shape-rendering="crispEdges"/><rect x="812" y="887" width="25" height="25" shape-rendering="crispEdges"/><rect x="837" y="287" width="25" height="25" shape-rendering="crispEdges"/><rect x="837" y="337" width="25" height="25" shape-rendering="crispEdges"/><rect x="837" y="387" width="25" height="25" shape-rendering="crispEdges"/><rect x="837" y="412" width="25" height="25" shape-rendering="crispEdges"/><rect x="837" y="437" width="25" height="25" shape-rendering="crispEdges"/><rect x="837" y="462" width="25" height="25" shape-rendering="crispEdges"/><rect x="837" y="487" width="25" height="25" shape-rendering="crispEdges"/><rect x="837" y="512" width="25" height="25" shape-rendering="crispEdges"/><rect x="837" y="587" width="25" height="25" shape-rendering="crispEdges"/><rect x="837" y="687" width="25" height="25" shape-rendering="crispEdges"/><rect x="837" y="762" width="25" height="25" shape-rendering="crispEdges"/><rect x="837" y="787" width="25" height="25" shape-rendering="crispEdges"/><rect x="837" y="837" width="25" height="25" shape-rendering="crispEdges"/><rect x="837" y="862" width="25" height="25" shape-rendering="crispEdges"/><rect x="837" y="887" width="25" height="25" shape-rendering="crispEdges"/><rect x="862" y="287" width="25" height="25" shape-rendering="crispEdges"/><rect x="862" y="312" width="25" height="25" shape-rendering="crispEdges"/><rect x="862" y="362" width="25" height="25" shape-rendering="crispEdges"/><rect x="862" y="437" width="25" height="25" shape-rendering="crispEdges"/><rect x="862" y="462" width="25" height="25" shape-rendering="crispEdges"/><rect x="862" y="562" width="25" height="25" shape-rendering="crispEdges"/><rect x="862" y="587" width="25" height="25" shape-rendering="crispEdges"/><rect x="862" y="637" width="25" height="25" shape-rendering="crispEdges"/><rect x="862" y="687" width="25" height="25" shape-rendering="crispEdges"/><rect x="862" y="712" width="25" height="25" shape-rendering="crispEdges"/><rect x="862" y="737" width="25" height="25" shape-rendering="crispEdges"/><rect x="862" y="762" width="25" height="25" shape-rendering="crispEdges"/><rect x="862" y="787" width="25" height="25" shape-rendering="crispEdges"/><rect x="862" y="812" width="25" height="25" shape-rendering="crispEdges"/><rect x="887" y="312" width="25" height="25" shape-rendering="crispEdges"/><rect x="887" y="362" width="25" height="25" shape-rendering="crispEdges"/><rect x="887" y="387" width="25" height="25" shape-rendering="crispEdges"/><rect x="887" y="462" width="25" height="25" shape-rendering="crispEdges"/><rect x="887" y="487" width="25" height="25" shape-rendering="crispEdges"/><rect x="887" y="512" width="25" height="25" shape-rendering="crispEdges"/><rect x="887" y="587" width="25" height="25" shape-rendering="crispEdges"/><rect x="887" y="687" width="25" height="25" shape-rendering="crispEdges"/><rect x="887" y="737" width="25" height="25" shape-rendering="crispEdges"/><rect x="887" y="762" width="25" height="25" shape-rendering="crispEdges"/><rect x="887" y="787" width="25" height="25" shape-rendering="crispEdges"/><rect x="887" y="812" width="25" height="25" shape-rendering="crispEdges"/><rect x="887" y="887" width="25" height="25" shape-rendering="crispEdges"/><rect x="87" y="87" width="25" height="25" shape-rendering="crispEdges"/><rect x="87" y="112" width="25" height="25" shape-rendering="crispEdges"/><rect x="87" y="137" width="25" height="25" shape-rendering="crispEdges"/><rect x="87" y="162" width="25" height="25" shape-rendering="crispEdges"/><rect x="87" y="187" width="25" height="25" shape-rendering="crispEdges"/><rect x="87" y="212" width="25" height="25" shape-rendering="crispEdges"/><rect x="87" y="237" width="25" height="25" shape-rendering="crispEdges"/><rect x="112" y="87" width="25" height="25" shape-rendering="crispEdges"/><rect x="112" y="237" width="25" height="25" shape-rendering="crispEdges"/><rect x="137" y="87" width="25" height="25" shape-rendering="crispEdges"/><rect x="137" y="237" width="25" height="25" shape-rendering="crispEdges"/><rect x="162" y="87" width="25" height="25" shape-rendering="crispEdges"/><rect x="162" y="237" width="25" height="25" shape-rendering="crispEdges"/><rect x="187" y="87" width="25" height="25" shape-rendering="crispEdges"/><rect x="187" y="237" width="25" height="25" shape-rendering="crispEdges"/><rect x="212" y="87" width="25" height="25" shape-rendering="crispEdges"/><rect x="212" y="237" width="25" height="25" shape-rendering="crispEdges"/><rect x="237" y="87" width="25" height="25" shape-rendering="crispEdges"/><rect x="237" y="112" width="25" height="25" shape-rendering="crispEdges"/><rect x="237" y="137" width="25" height="25" shape-rendering="crispEdges"/><rect x="237" y="162" width="25" height="25" shape-rendering="crispEdges"/><rect x="237" y="187" width="25" height="25" shape-rendering="crispEdges"/><rect x="237" y="212" width="25" height="25" shape-rendering="crispEdges"/><rect x="237" y="237" width="25" height="25" shape-rendering="crispEdges"/><rect x="137" y="137" width="25" height="25" shape-rendering="crispEdges"/><rect x="137" y="162" width="25" height="25" shape-rendering="crispEdges"/><rect x="137" y="187" width="25" height="25" shape-rendering="crispEdges"/><rect x="162" y="137" width="25" height="25" shape-rendering="crispEdges"/><rect x="162" y="162" width="25" height="25" shape-rendering="crispEdges"/><rect x="162" y="187" width="25" height="25" shape-rendering="crispEdges"/><rect x="187" y="137" width="25" height="25" shape-rendering="crispEdges"/><rect x="187" y="162" width="25" height="25" shape-rendering="crispEdges"/><rect x="187" y="187" width="25" height="25" shape-rendering="crispEdges"/><rect x="737" y="87" width="25" height="25" shape-rendering="crispEdges"/><rect x="737" y="112" width="25" height="25" shape-rendering="crispEdges"/><rect x="737" y="137" width="25" height="25" shape-rendering="crispEdges"/><rect x="737" y="162" width="25" height="25" shape-rendering="crispEdges"/><rect x="737" y="187" width="25" height="25" shape-rendering="crispEdges"/><rect x="737" y="212" width="25" height="25" shape-rendering="crispEdges"/><rect x="737" y="237" width="25" height="25" shape-rendering="crispEdges"/><rect x="762" y="87" width="25" height="25" shape-rendering="crispEdges"/><rect x="762" y="237" width="25" height="25" shape-rendering="crispEdges"/><rect x="787" y="87" width="25" height="25" shape-rendering="crispEdges"/><rect x="787" y="237" width="25" height="25" shape-rendering="crispEdges"/><rect x="812" y="87" width="25" height="25" shape-rendering="crispEdges"/><rect x="812" y="237" width="25" height="25" shape-rendering="crispEdges"/><rect x="837" y="87" width="25" height="25" shape-rendering="crispEdges"/><rect x="837" y="237" width="25" height="25" shape-rendering="crispEdges"/><rect x="862" y="87" width="25" height="25" shape-rendering="crispEdges"/><rect x="862" y="237" width="25" height="25" shape-rendering="crispEdges"/><rect x="887" y="87" width="25" height="25" shape-rendering="crispEdges"/><rect x="887" y="112" width="25" height="25" shape-rendering="crispEdges"/><rect x="887" y="137" width="25" height="25" shape-rendering="crispEdges"/><rect x="887" y="162" width="25" height="25" shape-rendering="crispEdges"/><rect x="887" y="187" width="25" height="25" shape-rendering="crispEdges"/><rect x="887" y="212" width="25" height="25" shape-rendering="crispEdges"/><rect x="887" y="237" width="25" height="25" shape-rendering="crispEdges"/><rect x="787" y="137" width="25" height="25" shape-rendering="crispEdges"/><rect x="787" y="162" width="25" height="25" shape-rendering="crispEdges"/><rect x="787" y="187" width="25" height="25" shape-rendering="crispEdges"/><rect x="812" y="137" width="25" height="25" shape-rendering="crispEdges"/><rect x="812" y="162" width="25" height="25" shape-rendering="crispEdges"/><rect x="812" y="187" width="25" height="25" shape-rendering="crispEdges"/><rect x="837" y="137" width="25" height="25" shape-rendering="crispEdges"/><rect x="837" y="162" width="25" height="25" shape-rendering="crispEdges"/><rect x="837" y="187" width="25" height="25" shape-rendering="crispEdges"/><rect x="87" y="737" width="25" height="25" shape-rendering="crispEdges"/><rect x="87" y="762" width="25" height="25" shape-rendering="crispEdges"/><rect x="87" y="787" width="25" height="25" shape-rendering="crispEdges"/><rect x="87" y="812" width="25" height="25" shape-rendering="crispEdges"/><rect x="87" y="837" width="25" height="25" shape-rendering="crispEdges"/><rect x="87" y="862" width="25" height="25" shape-rendering="crispEdges"/><rect x="87" y="887" width="25" height="25" shape-rendering="crispEdges"/><rect x="112" y="737" width="25" height="25" shape-rendering="crispEdges"/><rect x="112" y="887" width="25" height="25" shape-rendering="crispEdges"/><rect x="137" y="737" width="25" height="25" shape-rendering="crispEdges"/><rect x="137" y="887" width="25" height="25" shape-rendering="crispEdges"/><rect x="162" y="737" width="25" height="25" shape-rendering="crispEdges"/><rect x="162" y="887" width="25" height="25" shape-rendering="crispEdges"/><rect x="187" y="737" width="25" height="25" shape-rendering="crispEdges"/><rect x="187" y="887" width="25" height="25" shape-rendering="crispEdges"/><rect x="212" y="737" width="25" height="25" shape-rendering="crispEdges"/><rect x="212" y="887" width="25" height="25" shape-rendering="crispEdges"/><rect x="237" y="737" width="25" height="25" shape-rendering="crispEdges"/><rect x="237" y="762" width="25" height="25" shape-rendering="crispEdges"/><rect x="237" y="787" width="25" height="25" shape-rendering="crispEdges"/><rect x="237" y="812" width="25" height="25" shape-rendering="crispEdges"/><rect x="237" y="837" width="25" height="25" shape-rendering="crispEdges"/><rect x="237" y="862" width="25" height="25" shape-rendering="crispEdges"/><rect x="237" y="887" width="25" height="25" shape-rendering="crispEdges"/><rect x="137" y="787" width="25" height="25" shape-rendering="crispEdges"/><rect x="137" y="812" width="25" height="25" shape-rendering="crispEdges"/><rect x="137" y="837" width="25" height="25" shape-rendering="crispEdges"/><rect x="162" y="787" width="25" height="25" shape-rendering="crispEdges"/><rect x="162" y="812" width="25" height="25" shape-rendering="crispEdges"/><rect x="162" y="837" width="25" height="25" shape-rendering="crispEdges"/><rect x="187" y="787" width="25" height="25" shape-rendering="crispEdges"/><rect x="187" y="812" width="25" height="25" shape-rendering="crispEdges"/><rect x="187" y="837" width="25" height="25" shape-rendering="crispEdges"/></g></svg>